<svg width="50" height="50" viewBox="0 0 50 50" fill="none" xmlns="http://www.w3.org/2000/svg">
<circle cx="25" cy="25" r="23" fill="#DDDDDD"/>
<path d="M0 25C0 11.1895 11.1895 0 25 0C38.8105 0 50 11.1895 50 25C50 38.8105 38.8105 50 25 50C11.1895 50 0 38.8105 0 25ZM29.4355 36.6936V25H36.5827C37.6613 25 38.2056 23.6895 37.4395 22.9335L25.8569 11.4113C25.3831 10.9375 24.627 10.9375 24.1532 11.4113L12.5605 22.9335C11.7944 23.6996 12.3387 25 13.4173 25H20.5645V36.6936C20.5645 37.3589 21.1089 37.9032 21.7742 37.9032H28.2258C28.8911 37.9032 29.4355 37.3589 29.4355 36.6936Z" fill="#271C16"/>
</svg>
