<svg width="100" height="70" viewBox="0 0 100 70" fill="none" xmlns="http://www.w3.org/2000/svg">
<path d="M66.518 35.0048C63.8776 35.0048 61.3934 33.5986 60.0497 31.3487L50.0035 14.6929L39.9728 31.3487C38.6136 33.6143 36.1293 35.0205 33.4889 35.0205C32.7858 35.0205 32.0827 34.9267 31.4109 34.7236L10.006 28.5988V56.4105C10.006 58.7073 11.5684 60.7073 13.787 61.2541L47.5661 69.707C49.1598 70.0977 50.8315 70.0977 52.4096 69.707L86.2199 61.2541C88.4385 60.6917 90.0009 58.6917 90.0009 56.4105V28.5988L68.596 34.708C67.9242 34.9111 67.2211 35.0048 66.518 35.0048ZM99.7347 17.4741L91.6883 1.41199C91.204 0.443264 90.1572 -0.119221 89.0791 0.0213999L50.0035 5.00564L64.3307 28.7706C64.9244 29.755 66.1118 30.2237 67.2211 29.9112L98.141 21.0833C99.6878 20.6302 100.438 18.9115 99.7347 17.4741ZM8.31859 1.41199L0.272221 17.4741C-0.446483 18.9115 0.319093 20.6302 1.85025 21.0677L32.7702 29.8956C33.8795 30.2081 35.0669 29.7394 35.6606 28.755L50.0035 5.00564L10.9122 0.0213999C9.83412 -0.103597 8.80293 0.443264 8.31859 1.41199Z" fill="#B7BAC6"/>
</svg>
