<svg width="38" height="38" viewBox="0 0 38 38" fill="none" xmlns="http://www.w3.org/2000/svg">
<path d="M14.5814 26H11.2643V15.9853H14.5814V26ZM12.9211 14.6192C11.8604 14.6192 11 13.7955 11 12.801C11 12.3234 11.2024 11.8653 11.5627 11.5275C11.9229 11.1898 12.4116 11 12.9211 11C13.4306 11 13.9192 11.1898 14.2795 11.5275C14.6397 11.8653 14.8421 12.3234 14.8421 12.801C14.8421 13.7955 13.9814 14.6192 12.9211 14.6192ZM26.9964 26H23.6864V21.1249C23.6864 19.963 23.6614 18.473 21.9618 18.473C20.2371 18.473 19.9729 19.7354 19.9729 21.0412V26H16.6593V15.9853H19.8407V17.3514H19.8871C20.33 16.5645 21.4118 15.7341 23.0257 15.7341C26.3829 15.7341 27 17.8067 27 20.4988V26H26.9964Z" fill="#DDDDDD"/>
<rect x="1" y="1" width="36" height="36" rx="18" stroke="#DDDDDD" stroke-width="2"/>
</svg>
