<svg width="24" height="24" viewBox="0 0 24 24" fill="none" xmlns="http://www.w3.org/2000/svg">
<path d="M12.0001 18.88C12.0182 19.0313 12.0015 19.1847 11.9512 19.3286C11.901 19.4724 11.8185 19.6029 11.7101 19.71C11.5228 19.8962 11.2693 20.0008 11.0051 20.0008C10.7409 20.0008 10.4875 19.8962 10.3001 19.71L6.30013 15.71C6.18853 15.6028 6.10335 15.4711 6.05129 15.3253C5.99923 15.1795 5.98172 15.0237 6.00013 14.87V9.75L1.21013 3.62C1.04774 3.41153 0.974465 3.14726 1.00632 2.88493C1.03817 2.6226 1.17257 2.38355 1.38013 2.22C1.55607 2.07884 1.77457 2.00131 2.00013 2H16.0001C16.2257 2.00131 16.4442 2.07884 16.6201 2.22C16.8277 2.38355 16.9621 2.6226 16.9939 2.88493C17.0258 3.14726 16.9525 3.41153 16.7901 3.62L12.0001 9.75V18.88ZM4.00013 4L8.00013 9.06V14.58L10.0001 16.58V9.05L14.0001 4M13.0001 16L18.0001 21L23.0001 16H13.0001Z" fill="#DDDDDD"/>
</svg>
