<svg width="38" height="38" viewBox="0 0 38 38" fill="none" xmlns="http://www.w3.org/2000/svg">
<path d="M26.1498 14.7383C26.1612 14.9023 26.1612 15.0664 26.1612 15.2305C26.1612 20.2344 22.4493 26 15.665 26C13.5749 26 11.6333 25.3789 10 24.3008C10.297 24.3359 10.5825 24.3477 10.8909 24.3477C12.6155 24.3477 14.2031 23.75 15.4708 22.7305C13.849 22.6953 12.4898 21.6055 12.0216 20.1055C12.25 20.1406 12.4784 20.164 12.7183 20.164C13.0495 20.164 13.3807 20.1172 13.6891 20.0352C11.9987 19.6836 10.7309 18.1601 10.7309 16.3203V16.2734C11.222 16.5547 11.7932 16.7305 12.3984 16.7539C11.4048 16.0742 10.7538 14.914 10.7538 13.6015C10.7538 12.8984 10.9365 12.2539 11.2563 11.6914C13.0723 13.9883 15.802 15.4882 18.8629 15.6523C18.8058 15.3711 18.7716 15.0781 18.7716 14.7852C18.7716 12.6992 20.4162 11 22.4607 11C23.5228 11 24.4822 11.457 25.1561 12.1953C25.9898 12.0313 26.7893 11.7148 27.4975 11.2813C27.2233 12.1602 26.6409 12.8985 25.8756 13.3672C26.618 13.2852 27.3376 13.0742 28 12.7813C27.4975 13.5312 26.8693 14.1992 26.1498 14.7383Z" fill="#DDDDDD"/>
<rect x="1" y="1" width="36" height="36" rx="18" stroke="#DDDDDD" stroke-width="2"/>
</svg>
