<svg width="10" height="10" viewBox="0 0 10 10" fill="none" xmlns="http://www.w3.org/2000/svg">
<path d="M4.7742 2.72683L1.45545 6.20995C1.40005 6.26807 1.36914 6.34528 1.36914 6.42558C1.36914 6.50587 1.40005 6.58309 1.45545 6.6412L1.4592 6.64495C1.48606 6.67322 1.51839 6.69574 1.55422 6.71112C1.59005 6.7265 1.62864 6.73444 1.66764 6.73444C1.70663 6.73444 1.74522 6.7265 1.78105 6.71112C1.81689 6.69574 1.84922 6.67322 1.87608 6.64495L5.00108 3.36495L8.12483 6.64495C8.15168 6.67322 8.18401 6.69574 8.21985 6.71112C8.25568 6.7265 8.29427 6.73444 8.33326 6.73444C8.37226 6.73444 8.41085 6.7265 8.44668 6.71112C8.48251 6.69574 8.51484 6.67322 8.5417 6.64495L8.54545 6.6412C8.60085 6.58309 8.63176 6.50587 8.63176 6.42558C8.63176 6.34528 8.60085 6.26807 8.54545 6.20995L5.2267 2.72683C5.19751 2.6962 5.16241 2.67181 5.12352 2.65515C5.08463 2.63848 5.04276 2.62989 5.00045 2.62989C4.95814 2.62989 4.91627 2.63848 4.87738 2.65515C4.83849 2.67181 4.80339 2.6962 4.7742 2.72683Z" fill="#928333"/>
</svg>
