<svg width="100" height="88" viewBox="0 0 100 88" fill="none" xmlns="http://www.w3.org/2000/svg">
<path d="M95.4297 42.7416L76.5625 35.6514V14.4006C76.5625 11.4627 74.7461 8.83819 71.9922 7.80013L52.4609 0.455375C50.8789 -0.151792 49.1211 -0.151792 47.5195 0.455375L27.9883 7.80013C25.2344 8.83819 23.418 11.4627 23.418 14.4006V35.6514L4.55078 42.7416C1.81641 43.7796 0 46.4041 0 49.342V70.9062C0 73.5699 1.50391 76.0182 3.88672 77.2129L23.418 87.0059C25.3906 88.0048 27.7344 88.0048 29.707 87.0059L50 76.8212L70.293 87.0059C72.2656 88.0048 74.6094 88.0048 76.582 87.0059L96.1133 77.2129C98.4961 76.0182 100 73.5699 100 70.9062V49.342C100 46.4041 98.1836 43.7796 95.4297 42.7416ZM69.9219 35.8081L53.3203 42.056V28.6984L69.9219 21.4516V35.8081ZM30.0781 14.1264L50 6.64455L69.9219 14.1264V14.2439L50 22.3525L30.0781 14.2439V14.1264ZM46.4844 71.1413L29.8828 79.4653V63.9728L46.4844 56.3734V71.1413ZM46.4844 49.2049L26.5625 57.3135L6.64062 49.2049V49.0874L26.5625 41.6056L46.4844 49.0874V49.2049ZM93.3594 71.1413L76.7578 79.4653V63.9728L93.3594 56.3734V71.1413ZM93.3594 49.2049L73.4375 57.3135L53.5156 49.2049V49.0874L73.4375 41.6056L93.3594 49.0874V49.2049Z" fill="#B7BAC6"/>
</svg>
