<svg width="38" height="38" viewBox="0 0 38 38" fill="none" xmlns="http://www.w3.org/2000/svg">
<path d="M19.0018 14.6542C16.7316 14.6542 14.9005 16.3712 14.9005 18.5C14.9005 20.6288 16.7316 22.3458 19.0018 22.3458C21.2719 22.3458 23.1031 20.6288 23.1031 18.5C23.1031 16.3712 21.2719 14.6542 19.0018 14.6542ZM19.0018 21.0003C17.5347 21.0003 16.3354 19.879 16.3354 18.5C16.3354 17.121 17.5312 15.9997 19.0018 15.9997C20.4724 15.9997 21.6682 17.121 21.6682 18.5C21.6682 19.879 20.4688 21.0003 19.0018 21.0003ZM24.2274 14.4969C24.2274 14.9956 23.7991 15.3939 23.2708 15.3939C22.739 15.3939 22.3142 14.9922 22.3142 14.4969C22.3142 14.0015 22.7426 13.5999 23.2708 13.5999C23.7991 13.5999 24.2274 14.0015 24.2274 14.4969ZM26.9438 15.4073C26.8831 14.2057 26.5904 13.1413 25.6516 12.2644C24.7165 11.3874 23.5814 11.113 22.2999 11.0527C20.9793 10.9824 17.0207 10.9824 15.7001 11.0527C14.4222 11.1096 13.2871 11.3841 12.3484 12.261C11.4096 13.138 11.1205 14.2023 11.0562 15.4039C10.9813 16.6424 10.9813 20.3543 11.0562 21.5927C11.1169 22.7943 11.4096 23.8587 12.3484 24.7356C13.2871 25.6126 14.4186 25.887 15.7001 25.9473C17.0207 26.0176 20.9793 26.0176 22.2999 25.9473C23.5814 25.8904 24.7165 25.6159 25.6516 24.7356C26.5868 23.8587 26.8795 22.7943 26.9438 21.5927C27.0187 20.3543 27.0187 16.6457 26.9438 15.4073ZM25.2376 22.9215C24.9592 23.5775 24.4202 24.083 23.717 24.3474C22.664 24.739 20.1654 24.6486 19.0018 24.6486C17.8381 24.6486 15.336 24.7356 14.2866 24.3474C13.5869 24.0863 13.048 23.5809 12.766 22.9215C12.3484 21.9341 12.4447 19.5912 12.4447 18.5C12.4447 17.4088 12.3519 15.0625 12.766 14.0785C13.0444 13.4225 13.5834 12.917 14.2866 12.6526C15.3395 12.261 17.8381 12.3514 19.0018 12.3514C20.1654 12.3514 22.6676 12.2644 23.717 12.6526C24.4166 12.9137 24.9556 13.4191 25.2376 14.0785C25.6552 15.0659 25.5588 17.4088 25.5588 18.5C25.5588 19.5912 25.6552 21.9375 25.2376 22.9215Z" fill="#DDDDDD"/>
<rect x="1" y="1" width="36" height="36" rx="18" stroke="#DDDDDD" stroke-width="2"/>
</svg>
