<svg width="100" height="71" viewBox="0 0 100 71" fill="none" xmlns="http://www.w3.org/2000/svg">
<path d="M30 35.0427C39.6719 35.0427 47.5 27.205 47.5 17.5214C47.5 7.83768 39.6719 0 30 0C20.3281 0 12.5 7.83768 12.5 17.5214C12.5 27.205 20.3281 35.0427 30 35.0427ZM42 40.0488H40.7031C37.4531 41.6132 33.8438 42.5519 30 42.5519C26.1562 42.5519 22.5625 41.6132 19.2969 40.0488H18C8.0625 40.0488 0 48.1212 0 58.0708V62.5763C0 66.722 3.35938 70.0855 7.5 70.0855H52.5C56.6406 70.0855 60 66.722 60 62.5763V58.0708C60 48.1212 51.9375 40.0488 42 40.0488ZM75 35.0427C83.2812 35.0427 90 28.3158 90 20.0244C90 11.7331 83.2812 5.0061 75 5.0061C66.7188 5.0061 60 11.7331 60 20.0244C60 28.3158 66.7188 35.0427 75 35.0427ZM82.5 40.0488H81.9062C79.7344 40.7998 77.4375 41.3004 75 41.3004C72.5625 41.3004 70.2656 40.7998 68.0938 40.0488H67.5C64.3125 40.0488 61.375 40.9718 58.7969 42.458C62.6094 46.5724 65 52.0322 65 58.0708V64.0781C65 64.4223 64.9219 64.7508 64.9062 65.0794H92.5C96.6406 65.0794 100 61.7159 100 57.5702C100 47.8865 92.1719 40.0488 82.5 40.0488Z" fill="#B7BAC6"/>
</svg>
